<?xml version="1.0" standalone="no"?><!DOCTYPE svg PUBLIC "-//W3C//DTD SVG 1.1//EN" "http://www.w3.org/Graphics/SVG/1.1/DTD/svg11.dtd"><svg t="1706352284143" class="icon" viewBox="0 0 1024 1024" version="1.1" xmlns="http://www.w3.org/2000/svg" p-id="1643" xmlns:xlink="http://www.w3.org/1999/xlink" width="200" height="200"><path d="M512 512m-512 0a512 512 0 1 0 1024 0 512 512 0 1 0-1024 0Z" fill="#BC7006" p-id="1644"></path><path d="M409.6 255.069091l137.867636-111.988364a19.409455 19.409455 0 0 1 22.109091 0l137.867637 111.988364c7.400727 6.050909 0.791273 14.894545-11.031273 14.894545H420.677818c-11.869091 0-18.478545-8.890182-11.031273-14.894545z m360.261818 227.933091c5.864727 5.725091 6.144 12.8 2.699637 18.525091-3.490909 5.632-10.705455 9.867636-20.014546 9.867636h-433.338182c-9.309091 0-16.570182-4.189091-20.014545-9.867636-3.490909-5.678545-3.165091-12.8 2.653091-18.525091l114.594909-62.277818h269.172363l84.247273 62.277818z m-41.425454 169.658182l149.085091 111.010909c7.912727 5.538909 8.378182 12.381091 3.630545 17.826909-4.747636 5.492364-14.615273 9.541818-27.322182 9.541818H262.888727c-12.660364 0-22.574545-4.049455-27.275636-9.541818-4.747636-5.445818-4.282182-12.288 3.630545-17.826909l146.432-111.010909h342.807273z" fill="#FFFFFF" p-id="1645"></path><path d="M194.56 774.097455c9.402182 10.891636 25.413818 17.175273 43.938909 17.175272h593.547636c18.525091 0 34.536727-6.283636 43.93891-17.128727a32.674909 32.674909 0 0 0 8.145454-25.6 35.653818 35.653818 0 0 0-15.825454-24.529455l-139.031273-96.907636v-95.325091h23.645091c16.430545 0 30.906182-7.633455 38.725818-20.386909a36.305455 36.305455 0 0 0-6.004364-45.521454l-102.306909-100.864V266.146909c11.776-2.653091 21.178182-9.960727 24.855273-20.48a28.718545 28.718545 0 0 0-9.588364-31.976727l-138.472727-112.546909c-13.218909-10.705455-36.445091-10.705455-49.664 0L371.898182 213.690182a28.672 28.672 0 0 0-9.541818 32.023273c3.723636 10.472727 13.079273 17.780364 24.855272 20.48v98.816L284.858182 465.826909a36.352 36.352 0 0 0-5.957818 45.521455c7.819636 12.8 22.295273 20.433455 38.725818 20.433454h23.645091v95.325091l-139.031273 96.907636a35.700364 35.700364 0 0 0-15.825455 24.529455 32.581818 32.581818 0 0 0 8.145455 25.553455zM535.272727 137.216l106.542546 86.574545H428.683636l106.542546-86.574545z m104.448 130.234182v84.852363H430.824727V267.450182h208.896zM324.421818 488.122182l93.556364-92.16h234.589091l93.556363 92.16H324.421818z m361.192727 43.659636v84.898909H384.930909v-84.898909h300.683636z m-315.671272 128.512h330.658909l125.207273 87.319273H244.736l125.207273-87.319273z" fill="#FFFFFF" p-id="1646"></path></svg>